<?xml version="1.0" encoding="utf-8"?>
<!-- Generator: Adobe Illustrator 22.1.0, SVG Export Plug-In . SVG Version: 6.00 Build 0)  -->
<svg version="1.1" id="Layer_1" xmlns="http://www.w3.org/2000/svg" xmlns:xlink="http://www.w3.org/1999/xlink" x="0px" y="0px"
	 viewBox="0 0 1024 1024" style="enable-background:new 0 0 1024 1024;" xml:space="preserve">
<style type="text/css">
	.logo{fill:#aabbcc;}
	.box{fill:#ccbbaa;}
</style>
<rect class="box" width="1024" height="1024"/>
<polygon class="logo angle" points="176.8,115 413.5,484.9 167.7,909 62,909 315,478 79.2,115 "/>
<rect class="logo rect" x="468.8" y="115" width="85.8" height="794"/>
<path class="logo b" d="M933.2,547.1c-26.5-29.2-61.1-48.4-103.9-57.6c32.5-8.4,60.1-28,82.7-58.8c22.6-30.7,33.9-69.1,33.9-115.2
	c0-67.6-20.9-117.9-62.8-151c-41.9-33-102.3-49.6-181.2-49.6h-60.6v86.4H711c49.4,0,86.3,8.8,110.7,26.5
	c24.4,17.7,36.6,49.6,36.6,95.6c0,40.7-11.6,72.2-34.8,94.5c-23.2,22.3-52.9,33.4-89,33.4h-93.2v84.1h101.3
	c41.6,0,75.3,11.5,101.2,34.6c25.9,23,38.9,60.7,38.9,112.9c0,53.8-13.4,90.3-40.2,109.5c-26.8,19.2-65.5,28.8-116.1,28.8h-85V909
	h85C890.8,909,973,833.7,973,683.1C973,621.7,959.7,576.4,933.2,547.1z"/>
</svg>
