<svg xmlns="http://www.w3.org/2000/svg" id="Layer_1" data-name="Layer 1" viewBox="0 0 444.2 273.8"><defs/>
  <defs>
    <style>
      .cls-1 {
        font-size: 12px;
        font-family: MyriadPro-Regular,Myriad Pro;
      }
      .cls-2 {
        fill: #0e84cf;
      }
      .cls-4 {
        letter-spacing: 0.01em;
      }
      .cls-5 {
        letter-spacing: -.01em;
      }
      .cls-7 {
        letter-spacing: 2.79em;
      }
      .cls-8 {
        letter-spacing: 0;
      }
      .cls-9 {
        letter-spacing: -.01em;
      }
      .cls-10,
      .cls-12,
      .cls-13 {
        letter-spacing: 0;
      }
      .cls-22 {
        letter-spacing: -.01em;
      }
      .cls-23 {
        letter-spacing: -.03em;
      }
      .cls-24,
      .cls-32,
      .cls-39 {
        letter-spacing: -.01em;
      }
      .cls-41,
      .cls-42,
      .cls-43 {
        letter-spacing: 0;
      }
      .cls-44 {
        letter-spacing: -.01em;
      }
      .cls-45 {
        letter-spacing: 0.01em;
      }
      .cls-46 {
        letter-spacing: -.03em;
      }
      .cls-49 {
        letter-spacing: -.01em;
      }
      .cls-50 {
        letter-spacing: 0;
      }
    </style>
  </defs>
  <path
    d="M71 231s0-22 6-25l16-7c2-1 1-6 1-6s-11 12-19 12c17-14 14-19 14-19s-13 11-16 10c14-13 16-19 16-19s-18 9-24 5c16-4 20-41 20-41s3-34 6-40c1-5 11-45 56-38s38 66 38 67 1 0 1 4-2 7-2 7 2 5 2 14c-1-2-2-4-3-3 0 6-2 5-5 17 0 6 7 10 9 10-5 2 3 4 3 4s18 2 24 7 13 27 14 40l-157 1z"
    transform="translate(-65 -62)"/>
  <text class="cls-1" transform="translate(213 114)">
    <tspan class="cls-2">
      <tspan letter-spacing="-.1em">F</tspan>
      <tspan x="5.3" y="0">a</tspan>
      <tspan x="11.1" y="0" class="cls-4">c</tspan>
      <tspan x="16.6" y="0">ts:</tspan>
    </tspan>
    <tspan x="0" y="18" class="cls-5">A</tspan>
    <tspan x="7.2" y="18">ge:
    </tspan>
    <tspan x="24.9" y="18" letter-spacing=".7em"></tspan>
    <tspan x="36" y="18" class="cls-7"></tspan>
    <tspan x="72" y="18">21</tspan>
    <tspan x="0" y="36" class="cls-8">O</tspan>
    <tspan x="8.3" y="36" class="cls-9">c</tspan>
    <tspan x="13.6" y="36">cup</tspan>
    <tspan x="32.4" y="36" class="cls-10">a</tspan>
    <tspan x="38.2" y="36">tion:</tspan>
    <tspan x="60.7" y="36" letter-spacing=".7em"></tspan>
    <tspan x="72" y="36" class="cls-12">S</tspan>
    <tspan x="77.9" y="36">tude</tspan>
    <tspan x="101.2" y="36" class="cls-13">n</tspan>
    <tspan x="107.8" y="36" class="cls-12">t</tspan>
    <tspan x="111.8" y="36">,
    </tspan>
    <tspan x="116.8" y="36" letter-spacing="0em">F</tspan>
    <tspan x="122.3" y="36">ilm &amp;</tspan>
    <tspan x="147.8" y="36" letter-spacing="0em"></tspan>
    <tspan x="149.8" y="36" letter-spacing="-.1em">T</tspan>
    <tspan x="155" y="36">elevision major</tspan>
    <tspan x="0" y="54" letter-spacing="0">G</tspan>
    <tspan x="7.8" y="54">ea</tspan>
    <tspan x="19.6" y="54" letter-spacing="0em">r</tspan>
    <tspan x="23.6" y="54">:
    </tspan>
    <tspan x="28.7" y="54" letter-spacing=".4em"></tspan>
    <tspan x="36" y="54" class="cls-7"></tspan>
    <tspan x="72" y="54" letter-spacing="0em">W</tspan>
    <tspan x="82" y="54">ind</tspan>
    <tspan x="98.2" y="54" letter-spacing="0em">o</tspan>
    <tspan x="104.7" y="54" class="cls-9">w</tspan>
    <tspan x="113.5" y="54" class="cls-22">s</tspan>
    <tspan x="118.1" y="54">,
    </tspan>
    <tspan x="123.1" y="54" class="cls-23">F</tspan>
    <tspan x="128.6" y="54">i</tspan>
    <tspan x="131.4" y="54" class="cls-24">r</tspan>
    <tspan x="135.3" y="54">e</tspan>
    <tspan x="141.3" y="54" letter-spacing="0em">f</tspan>
    <tspan x="144.6" y="54" letter-spacing="0em">o</tspan>
    <tspan x="151" y="54">x, i</tspan>
    <tspan x="164.4" y="54" letter-spacing="0em">P</tspan>
    <tspan x="170.8" y="54">hon</tspan>
    <tspan x="190.7" y="54" class="cls-5">e</tspan>
    <tspan x="196.5" y="54">, i</tspan>
    <tspan x="204.4" y="54" class="cls-23">P</tspan>
    <tspan x="210.4" y="54">ad</tspan>
  </text>
  <text fill="#0e84cf" font-family="MyriadPro-Regular,Myriad Pro" font-size="22" transform="translate(213 21)">Susan Summers</text>
  <text font-family="MyriadPro-Regular,Myriad Pro" font-size="14" transform="translate(213 46)">“I l<tspan x="14.6" y="0" letter-spacing="0em">o</tspan>
    <tspan x="22.2" y="0" letter-spacing="0em">v</tspan>
    <tspan x="28.8" y="0">e
    </tspan>
    <tspan x="38.7" y="0" class="cls-32">t</tspan>
    <tspan x="43.3" y="0">echnology and the things I can</tspan>
    <tspan x="0" y="21">do with it — as long as i</tspan>
    <tspan x="138.7" y="21" letter-spacing="0em">t</tspan>
    <tspan x="143.6" y="21" letter-spacing="-.1em">’</tspan>
    <tspan x="145.5" y="21">s easy
    </tspan>
    <tspan x="182.9" y="21" class="cls-32">t</tspan>
    <tspan x="187.4" y="21" letter-spacing="0">o us</tspan>
    <tspan x="211.3" y="21" letter-spacing="0em">e</tspan>
    <tspan x="218.2" y="21" letter-spacing="-.1em">.</tspan>
    <tspan x="219.5" y="21" letter-spacing="-.1em">”</tspan>
  </text>
  <text class="cls-1" transform="translate(3 199)">
    <tspan class="cls-2">
      <tspan class="cls-8">B</tspan>
      <tspan x="6.5" y="0">eh</tspan>
      <tspan x="19.2" y="0" class="cls-39">a</tspan>
      <tspan x="24.9" y="0">viou</tspan>
      <tspan x="46.7" y="0" letter-spacing="0em">r</tspan>
      <tspan x="50.7" y="0" class="cls-41">:</tspan>
    </tspan>
    <tspan x="0" y="18" class="cls-9">U</tspan>
    <tspan x="7.7" y="18">ses
    </tspan>
    <tspan x="25.8" y="18" class="cls-42">P</tspan>
    <tspan x="32.1" y="18" class="cls-43">ho</tspan>
    <tspan x="45.3" y="18" class="cls-44">t</tspan>
    <tspan x="49.2" y="18">oshop and
    </tspan>
    <tspan x="104.9" y="18" class="cls-45">I</tspan>
    <tspan x="107.9" y="18">llust</tspan>
    <tspan x="128.9" y="18" class="cls-42">r</tspan>
    <tspan x="132.8" y="18" class="cls-10">a</tspan>
    <tspan x="138.5" y="18" class="cls-9">t</tspan>
    <tspan x="142.4" y="18">or</tspan>
    <tspan x="0" y="36" class="cls-8">D</tspan>
    <tspan x="8" y="36">oes</tspan>
    <tspan x="25.4" y="36" class="cls-46">n</tspan>
    <tspan x="31.7" y="36" letter-spacing="0em">’</tspan>
    <tspan x="34" y="36">t h</tspan>
    <tspan x="47.2" y="36" letter-spacing="0em">a</tspan>
    <tspan x="52.9" y="36" class="cls-49">v</tspan>
    <tspan x="58.5" y="36">e a lot of
    </tspan>
    <tspan x="104" y="36" class="cls-50">e</tspan>
    <tspan x="110" y="36" class="cls-4">x</tspan>
    <tspan x="115.7" y="36">t</tspan>
    <tspan x="119.6" y="36" class="cls-42">r</tspan>
    <tspan x="123.5" y="36">a time</tspan>
    <tspan x="0" y="54" class="cls-12">A</tspan>
    <tspan x="7.3" y="54" class="cls-43">l</tspan>
    <tspan x="10.1" y="54" class="cls-10">w</tspan>
    <tspan x="18.9" y="54" class="cls-39">a</tspan>
    <tspan x="24.6" y="54" letter-spacing="0em">y</tspan>
    <tspan x="30.2" y="54">s on-th</tspan>
    <tspan x="65" y="54" letter-spacing="0em">e</tspan>
    <tspan x="71.4" y="54" letter-spacing="0em">-</tspan>
    <tspan x="75.3" y="54">go</tspan>
    <tspan x="0" y="72" class="cls-8">R</tspan>
    <tspan x="6.5" y="72">eads
    </tspan>
    <tspan x="32.4" y="72" class="cls-22">C</tspan>
    <tspan x="39.2" y="72">ommunic</tspan>
    <tspan x="87.3" y="72" class="cls-10">a</tspan>
    <tspan x="93" y="72">tion
    </tspan>
    <tspan x="115.6" y="72" class="cls-12">A</tspan>
    <tspan x="122.9" y="72" letter-spacing="0em">r</tspan>
    <tspan x="127.1" y="72">ts</tspan>
  </text>
  <text class="cls-1" transform="translate(213 199)">
    <tspan class="cls-2">Needs &amp;
      <tspan x="43.8" y="0" letter-spacing="0em">G</tspan>
      <tspan x="51.6" y="0">oals:</tspan>
    </tspan>
    <tspan x="0" y="18" class="cls-46">W</tspan>
    <tspan x="9.8" y="18">a</tspan>
    <tspan x="15.5" y="18" class="cls-10">n</tspan>
    <tspan x="22.1" y="18">ts
    </tspan>
    <tspan x="33.4" y="18" class="cls-9">t</tspan>
    <tspan x="37.3" y="18">o c</tspan>
    <tspan x="51.8" y="18" class="cls-49">r</tspan>
    <tspan x="55.6" y="18">e</tspan>
    <tspan x="61.6" y="18" class="cls-13">a</tspan>
    <tspan x="67.4" y="18" class="cls-44">t</tspan>
    <tspan x="71.3" y="18">e
    </tspan>
    <tspan x="79.8" y="18" class="cls-9">c</tspan>
    <tspan x="85.1" y="18">o</tspan>
    <tspan x="91.7" y="18" class="cls-10">n</tspan>
    <tspan x="98.3" y="18" class="cls-44">t</tspan>
    <tspan x="102.2" y="18">e</tspan>
    <tspan x="108.3" y="18" class="cls-10">n</tspan>
    <tspan x="114.9" y="18">t
    </tspan>
    <tspan x="121.4" y="18" letter-spacing="0em">f</tspan>
    <tspan x="124.7" y="18">e</tspan>
    <tspan x="130.7" y="18" class="cls-10">a</tspan>
    <tspan x="136.5" y="18">tu</tspan>
    <tspan x="147.1" y="18" class="cls-8">r</tspan>
    <tspan x="151" y="18">ing her
    </tspan>
    <tspan x="188.9" y="18" class="cls-24">w</tspan>
    <tspan x="197.6" y="18">o</tspan>
    <tspan x="204.2" y="18" class="cls-8">r</tspan>
    <tspan x="208.2" y="18">k</tspan>
    <tspan x="0" y="36" class="cls-45">I</tspan>
    <tspan x="3" y="36" class="cls-13">n</tspan>
    <tspan x="9.6" y="36" class="cls-44">t</tspan>
    <tspan x="13.5" y="36">e</tspan>
    <tspan x="19.5" y="36" class="cls-24">r</tspan>
    <tspan x="23.3" y="36" class="cls-41">es</tspan>
    <tspan x="34.1" y="36" class="cls-9">t</tspan>
    <tspan x="38" y="36">ed in 3D but af</tspan>
    <tspan x="111.3" y="36" class="cls-42">r</tspan>
    <tspan x="115.1" y="36">aid it is
    </tspan>
    <tspan x="152.4" y="36" class="cls-9">t</tspan>
    <tspan x="156.3" y="36" class="cls-41">oo
    </tspan>
    <tspan x="172.1" y="36" class="cls-44">c</tspan>
    <tspan x="177.4" y="36">ompl</tspan>
    <tspan x="203.6" y="36" class="cls-50">e</tspan>
    <tspan x="209.6" y="36">x</tspan>
    <tspan x="0" y="54" class="cls-46">W</tspan>
    <tspan x="9.8" y="54">a</tspan>
    <tspan x="15.5" y="54" class="cls-10">n</tspan>
    <tspan x="22.1" y="54">ts
    </tspan>
    <tspan x="33.4" y="54" class="cls-9">t</tspan>
    <tspan x="37.3" y="54">o sha</tspan>
    <tspan x="63.6" y="54" class="cls-24">r</tspan>
    <tspan x="67.5" y="54">e her
    </tspan>
    <tspan x="95.2" y="54" class="cls-24">w</tspan>
    <tspan x="103.9" y="54">o</tspan>
    <tspan x="110.5" y="54" letter-spacing="0">r</tspan>
    <tspan x="114.4" y="54">k online and elsewhe</tspan>
    <tspan x="219.6" y="54" class="cls-49">r</tspan>
    <tspan x="223.4" y="54">e</tspan>
    <tspan x="0" y="72" class="cls-46">W</tspan>
    <tspan x="9.8" y="72">a</tspan>
    <tspan x="15.5" y="72" class="cls-10">n</tspan>
    <tspan x="22.1" y="72">ts
    </tspan>
    <tspan x="33.4" y="72" class="cls-9">t</tspan>
    <tspan x="37.3" y="72">o be able
    </tspan>
    <tspan x="85.8" y="72" class="cls-9">t</tspan>
    <tspan x="89.7" y="72">o c</tspan>
    <tspan x="104.2" y="72" class="cls-24">r</tspan>
    <tspan x="108" y="72" class="cls-41">e</tspan>
    <tspan x="114.1" y="72" class="cls-13">a</tspan>
    <tspan x="119.8" y="72" class="cls-44">t</tspan>
    <tspan x="123.7" y="72">e when she has time</tspan>
  </text>
</svg>
