<svg xmlns="http://www.w3.org/2000/svg" viewBox="0 0 647 327.04"><defs><style>.a,.u,.v,.w{font-size:12px;font-family:MyriadPro-Regular, Myriad Pro;}.b,.w{letter-spacing:0em;}.c{letter-spacing:-0.01em;}.d{letter-spacing:0.01em;}.e{letter-spacing:-0.03em;}.f{letter-spacing:0em;}.g{letter-spacing:-0.01em;}.h{letter-spacing:-0.01em;}.i{letter-spacing:-0.02em;}.j{letter-spacing:0.01em;}.k{letter-spacing:0em;}.l{letter-spacing:0.02em;}.m{letter-spacing:-0.01em;}.n{letter-spacing:0em;}.o{letter-spacing:0em;}.p{letter-spacing:-0.05em;}.q{letter-spacing:0.02em;}.r{letter-spacing:-0.01em;}.s{letter-spacing:0em;}.t{letter-spacing:-0.01em;}.u{letter-spacing:-0.07em;}.v{letter-spacing:0.01em;}.x{letter-spacing:-0.01em;}.aa,.ab,.y,.z{fill:none;stroke:#000;stroke-miterlimit:10;}.z{stroke-width:2px;}.aa{stroke-width:3px;}.ab{stroke-width:8px;}</style></defs><title>UXProcess-Auguste-1</title><text class="a" transform="translate(18.24 163.04)"><tspan class="b">R</tspan><tspan x="6.5" y="0">esea</tspan><tspan class="c" x="29.06" y="0">r</tspan><tspan x="32.87" y="0">ch</tspan></text><text class="a" transform="translate(127.38 163.04)"><tspan class="d">G</tspan><tspan x="7.81" y="0">oals</tspan></text><text class="a" transform="translate(215.71 163.04)"><tspan class="e">W</tspan><tspan x="9.76" y="0">o</tspan><tspan class="f" x="16.34" y="0">r</tspan><tspan x="20.32" y="0">kfl</tspan><tspan class="g" x="32.22" y="0">o</tspan><tspan class="h" x="38.72" y="0">w</tspan><tspan x="47.48" y="0">s</tspan></text><text class="a" transform="translate(317.58 163.04)"><tspan class="i">P</tspan><tspan class="c" x="6.19" y="0">r</tspan><tspan x="10" y="0">o</tspan><tspan class="h" x="16.58" y="0">t</tspan><tspan x="20.48" y="0">o</tspan><tspan class="j" x="27.07" y="0">t</tspan><tspan x="31.15" y="0">ype</tspan></text><text class="a" transform="translate(267.52 324.04)"><tspan class="e">W</tspan><tspan class="k" x="9.76" y="0">ee</tspan><tspan class="l" x="21.78" y="0">k</tspan><tspan x="27.61" y="0">ly </tspan><tspan class="b" x="38.64" y="0">D</tspan><tspan class="k" x="46.68" y="0">esi</tspan><tspan class="m" x="60.25" y="0">g</tspan><tspan x="66.89" y="0">n Sp</tspan><tspan class="f" x="88.83" y="0">r</tspan><tspan class="n" x="92.81" y="0">i</tspan><tspan class="o" x="95.61" y="0">n</tspan><tspan x="102.23" y="0">ts</tspan></text><text class="a" transform="translate(391.92 155.84)"><tspan class="p">F<tspan class="n" x="5.3" y="0">ast </tspan><tspan class="q" x="22.36" y="0">I</tspan><tspan class="h" x="25.42" y="0">t</tspan><tspan class="k" x="29.32" y="0">e</tspan><tspan class="r" x="35.33" y="0">r</tspan><tspan class="s" x="39.19" y="0">a</tspan><tspan class="k" x="44.93" y="0">tion</tspan></tspan><tspan class="i" x="13.78" y="14.4">P</tspan><tspan class="c" x="19.97" y="14.4">r</tspan><tspan x="23.77" y="14.4">o</tspan><tspan class="h" x="30.36" y="14.4">c</tspan><tspan x="35.66" y="14.4">ess</tspan></text><text class="a" transform="translate(395.56 83.04)">En<tspan class="m" x="12.56" y="0">g</tspan><tspan x="19.2" y="0">ine</tspan><tspan class="b" x="34.68" y="0">r</tspan><tspan x="38.65" y="0">ing</tspan></text><text class="a" transform="translate(376.89 10.04)"><tspan class="b">D</tspan><tspan class="k" x="8.04" y="0">es</tspan><tspan class="m" x="18.8" y="0">g</tspan><tspan x="25.44" y="0">in-Build </tspan><tspan class="t" x="66.66" y="0">L</tspan><tspan x="72.15" y="0">oop</tspan></text><text class="u" transform="translate(404.54 242.04)">T<tspan class="k" x="5.11" y="0">esting</tspan></text><text class="v" transform="translate(477.08 163.04)">I<tspan class="k" x="2.99" y="0">mplime</tspan><tspan class="s" x="41.48" y="0">n</tspan><tspan class="k" x="48.1" y="0">t</tspan></text><text class="w" transform="translate(586.05 163.04)">D<tspan class="k" x="8.04" y="0">eli</tspan><tspan class="x" x="19.69" y="0">v</tspan><tspan class="k" x="25.34" y="0">er</tspan></text><circle class="y" cx="40.5" cy="162.04" r="40"/><circle class="z" cx="141.5" cy="162.04" r="40"/><circle class="aa" cx="242.5" cy="162.04" r="40"/><circle class="ab" cx="343.5" cy="162.04" r="40"/><circle class="ab" cx="424.5" cy="82.04" r="40"/><circle class="ab" cx="424.5" cy="241.04" r="40"/><circle class="ab" cx="505.5" cy="162.04" r="40"/><circle class="y" cx="606.5" cy="162.04" r="40"/><path d="M577.25,217.25a42.8,42.8,0,0,1,16.66,4.42,42.1,42.1,0,0,1,13.23,10.38,42.52,42.52,0,0,1,10.11,30.2,41.69,41.69,0,0,0-3.92-15.16,39.5,39.5,0,0,0-9.07-12.27,37.26,37.26,0,0,0-12.72-7.64,35.73,35.73,0,0,0-14.29-1.93Z" transform="translate(-112 -138.46)"/><path d="M451,261a42.72,42.72,0,0,1,4.43-16.66A42.22,42.22,0,0,1,465.8,231.1,42.45,42.45,0,0,1,496,221a41.73,41.73,0,0,0-15.16,3.91A39.78,39.78,0,0,0,468.58,234a37,37,0,0,0-7.64,12.73A35.72,35.72,0,0,0,459,261Z" transform="translate(-112 -138.46)"/><path d="M494.25,384.25a40.59,40.59,0,0,1-16.47-4.51,41.29,41.29,0,0,1-12.9-10.51A42.48,42.48,0,0,1,457.17,355a43.89,43.89,0,0,1-1.92-15.72,42.63,42.63,0,0,0,3.79,15,39.61,39.61,0,0,0,8.77,12.25,36.25,36.25,0,0,0,12.41,7.75,33.68,33.68,0,0,0,14,2Z" transform="translate(-112 -138.46)"/><path d="M621,341a41,41,0,0,1-4.51,16.48A41.54,41.54,0,0,1,606,370.38a42.82,42.82,0,0,1-14.26,7.7A43.45,43.45,0,0,1,576,380a42.78,42.78,0,0,0,15-3.78,40,40,0,0,0,12.26-8.77A36.7,36.7,0,0,0,611,355a33.82,33.82,0,0,0,2-14Z" transform="translate(-112 -138.46)"/><polygon points="80.5 158.04 101.5 162.04 80.5 166.04 80.5 158.04"/><polygon points="181.5 158.04 202.5 162.04 181.5 166.04 181.5 158.04"/><polygon points="282.5 158.04 303.5 162.04 282.5 166.04 282.5 158.04"/><polygon points="545.5 158.04 566.5 162.04 545.5 166.04 545.5 158.04"/><polygon points="323 297.54 545 301.54 323 305.54 323 297.54"/><polygon points="424 18.54 545 22.54 424 26.54 424 18.54"/><polygon points="323 305.54 101 301.54 323 297.54 323 305.54"/><polygon points="424 26.54 303 22.54 424 18.54 424 26.54"/></svg>