<svg xmlns="http://www.w3.org/2000/svg" viewBox="0 0 647 327"><defs/>
  <defs>
    <style>
      .a {
        font-size: 12px;
        font-family: MyriadPro-Regular,Myriad Pro;
      }
      .b {
        letter-spacing: 0;
      }
      .c {
        letter-spacing: -.01em;
      }
      .e {
        letter-spacing: -.03em;
      }
      .f {
        letter-spacing: 0;
      }
      .h {
        letter-spacing: -.01em;
      }
      .i {
        letter-spacing: -.02em;
      }
      .k {
        letter-spacing: 0;
      }
      .m {
        letter-spacing: -.01em;
      }
      .n,
      .s {
        letter-spacing: 0;
      }
      .ab,
      .y {
        fill: none;
        stroke: #0e84cf;
        stroke-miterlimit: 10;
      }
      .ab {
        stroke-width: 8px;
      }
      .style-color {
        fill: #0e84cf;
        stroke: #0e84cf;
      }
    </style>
  </defs>
  <text class="a" transform="translate(18 163)">
    <tspan class="b">R</tspan>
    <tspan x="6.5" y="0">esea</tspan>
    <tspan x="29.1" y="0" class="c">r</tspan>
    <tspan x="32.9" y="0">ch</tspan>
  </text>
  <text class="a" transform="translate(127 163)">
    <tspan letter-spacing="0em">G</tspan>
    <tspan x="7.8" y="0">oals</tspan>
  </text>
  <text class="a" transform="translate(216 163)">
    <tspan class="e">W</tspan>
    <tspan x="9.8" y="0">o</tspan>
    <tspan x="16.3" y="0" class="f">r</tspan>
    <tspan x="20.3" y="0">kfl</tspan>
    <tspan x="32.2" y="0" letter-spacing="0em">o</tspan>
    <tspan x="38.7" y="0" class="h">w</tspan>
    <tspan x="47.5" y="0">s</tspan>
  </text>
  <text class="a" transform="translate(318 163)">
    <tspan class="i">P</tspan>
    <tspan x="6.2" y="0" class="c">r</tspan>
    <tspan x="10" y="0">o</tspan>
    <tspan x="16.6" y="0" class="h">t</tspan>
    <tspan x="20.5" y="0">o</tspan>
    <tspan x="27.1" y="0" letter-spacing="0em">t</tspan>
    <tspan x="31.1" y="0">ype</tspan>
  </text>
  <text class="a" transform="translate(268 324)">
    <tspan class="e">W</tspan>
    <tspan x="9.8" y="0" class="k">ee</tspan>
    <tspan x="21.8" y="0" letter-spacing="0em">k</tspan>
    <tspan x="27.6" y="0">ly
    </tspan>
    <tspan x="38.6" y="0" class="b">D</tspan>
    <tspan x="46.7" y="0" class="k">esi</tspan>
    <tspan x="60.3" y="0" class="m">g</tspan>
    <tspan x="66.9" y="0">n Sp</tspan>
    <tspan x="88.8" y="0" class="f">r</tspan>
    <tspan x="92.8" y="0" class="n">i</tspan>
    <tspan x="95.6" y="0" letter-spacing="0">n</tspan>
    <tspan x="102.2" y="0">ts</tspan>
  </text>
  <text class="a" transform="translate(392 156)">
    <tspan letter-spacing="-.1em">F<tspan x="5.3" y="0" class="n">ast
      </tspan>
      <tspan x="22.4" y="0" letter-spacing="0em">I</tspan>
      <tspan x="25.4" y="0" class="h">t</tspan>
      <tspan x="29.3" y="0" class="k">e</tspan>
      <tspan x="35.3" y="0" letter-spacing="0em">r</tspan>
      <tspan x="39.2" y="0" class="s">a</tspan>
      <tspan x="44.9" y="0" class="k">tion</tspan>
    </tspan>
    <tspan x="13.8" y="14.4" class="i">P</tspan>
    <tspan x="20" y="14.4" class="c">r</tspan>
    <tspan x="23.8" y="14.4">o</tspan>
    <tspan x="30.4" y="14.4" class="h">c</tspan>
    <tspan x="35.7" y="14.4">ess</tspan>
  </text>
  <text class="a" transform="translate(396 83)">En<tspan x="12.6" y="0" class="m">g</tspan>
    <tspan x="19.2" y="0">inee</tspan>
    <tspan x="40.6" y="0" class="b">r</tspan>
    <tspan x="44.5" y="0">ing</tspan>
  </text>
  <text class="a" transform="translate(377 10)">
    <tspan class="b">D</tspan>
    <tspan x="8" y="0" class="k">es</tspan>
    <tspan x="18.8" y="0" class="m">g</tspan>
    <tspan x="25.4" y="0">in-Build
    </tspan>
    <tspan x="66.7" y="0" letter-spacing="0em">L</tspan>
    <tspan x="72.2" y="0">oop</tspan>
  </text>
  <text font-family="MyriadPro-Regular,Myriad Pro" font-size="12" letter-spacing="-.1em" transform="translate(405 242)">T<tspan x="5.1" y="0" class="k">esting</tspan>
  </text>
  <text font-family="MyriadPro-Regular,Myriad Pro" font-size="12" letter-spacing="0em" transform="translate(477 163)">I<tspan x="3" y="0" class="k">mplime</tspan>
    <tspan x="41.5" y="0" class="s">n</tspan>
    <tspan x="48.1" y="0" class="k">t</tspan>
  </text>
  <text font-family="MyriadPro-Regular,Myriad Pro" font-size="12" letter-spacing="0" transform="translate(586 163)">D<tspan x="8" y="0" class="k">eli</tspan>
    <tspan x="19.7" y="0" letter-spacing="0em">v</tspan>
    <tspan x="25.3" y="0" class="k">er</tspan>
  </text>
  <circle cx="40.5" cy="162" r="40" class="y"/>
  <circle cx="141.5" cy="162" r="40" fill="none" stroke="#0e84cf" stroke-miterlimit="10" stroke-width="2"/>
  <circle cx="242.5" cy="162" r="40" fill="none" stroke="#0e84cf" stroke-miterlimit="10" stroke-width="3"/>
  <circle cx="343.5" cy="162" r="40" class="ab"/>
  <circle cx="424.5" cy="82" r="40" class="ab"/>
  <circle cx="424.5" cy="241" r="40" class="ab"/>
  <circle cx="505.5" cy="162" r="40" class="ab"/>
  <circle cx="606.5" cy="162" r="40" class="y"/>
  <path class="style-color" d="M465 79a43 43 0 0117 4 42 42 0 0113 11 43 43 0 0110 30 42 42 0 00-4-15 40 40 0 00-9-13 37 37 0 00-12-7 36 36 0 00-15-2zM339 123a43 43 0 014-17 42 42 0 0111-13 42 42 0 0130-10 42 42 0 00-15 3 40 40 0 00-12 10 37 37 0 00-8 12 36 36 0 00-2 15zM382 246a41 41 0 01-16-5 41 41 0 01-13-10 42 42 0 01-8-14 44 44 0 01-2-16 43 43 0 004 15 40 40 0 009 12 36 36 0 0012 8 34 34 0 0014 2zM509 203a41 41 0 01-5 16 42 42 0 01-10 13 43 43 0 01-14 8 43 43 0 01-16 2 43 43 0 0015-4 40 40 0 0012-9 37 37 0 008-12 34 34 0 002-14zM81 158l21 4-21 4v-8zM182 158l21 4-21 4v-8zM283 158l21 4-21 4v-8zM546 158l21 4-21 4v-8zM323 298l222 4-222 4v-8zM424 19l121 4-121 4v-8zM323 306l-222-4 222-4v8zM424 27l-121-4 121-4v8z"/>
</svg>
