<?xml version="1.0" encoding="utf-8"?>
<!-- Generator: Adobe Illustrator 25.1.0, SVG Export Plug-In . SVG Version: 6.00 Build 0)  -->
<svg version="1.1" id="Layer_1" xmlns="http://www.w3.org/2000/svg" xmlns:xlink="http://www.w3.org/1999/xlink" x="0px" y="0px"
	 width="39px" height="44px" viewBox="0 0 39 44" style="enable-background:new 0 0 39 44;" xml:space="preserve">
<style type="text/css">
	.st0{fill:#FFFFFF;}
</style>
<g>
	<path class="st0" d="M2.89,23.94l-1.03,3.13H0.53l3.38-9.95h1.55l3.39,9.95H7.48l-1.06-3.13H2.89z M6.16,22.94l-0.97-2.86
		c-0.22-0.65-0.37-1.24-0.52-1.81H4.64c-0.15,0.59-0.31,1.2-0.5,1.8l-0.97,2.88H6.16z"/>
	<path class="st0" d="M10.17,27.07c0.03-0.49,0.06-1.21,0.06-1.84v-8.63h1.28v4.49h0.03c0.46-0.8,1.28-1.31,2.43-1.31
		c1.77,0,3.02,1.48,3.01,3.65c0,2.55-1.61,3.82-3.2,3.82c-1.03,0-1.86-0.4-2.39-1.34h-0.04l-0.06,1.18H10.17z M11.51,24.21
		c0,0.16,0.03,0.32,0.06,0.47c0.25,0.9,1,1.52,1.95,1.52c1.36,0,2.17-1.11,2.17-2.74c0-1.43-0.74-2.66-2.12-2.66
		c-0.89,0-1.71,0.6-1.98,1.59c-0.03,0.15-0.07,0.32-0.07,0.53V24.21z"/>
	<path class="st0" d="M25.08,23.44c0,2.64-1.83,3.79-3.56,3.79c-1.93,0-3.42-1.42-3.42-3.67c0-2.39,1.56-3.79,3.54-3.79
		C23.69,19.77,25.08,21.26,25.08,23.44z M19.41,23.51c0,1.56,0.9,2.75,2.17,2.75c1.24,0,2.17-1.17,2.17-2.77
		c0-1.21-0.6-2.74-2.14-2.74C20.08,20.74,19.41,22.16,19.41,23.51z"/>
	<path class="st0" d="M32.69,25.12c0,0.74,0.01,1.39,0.06,1.95H31.6l-0.07-1.17H31.5c-0.34,0.58-1.09,1.33-2.36,1.33
		c-1.12,0-2.46-0.62-2.46-3.13v-4.18h1.3v3.95c0,1.36,0.41,2.27,1.59,2.27c0.87,0,1.48-0.61,1.71-1.18
		c0.07-0.19,0.12-0.43,0.12-0.66v-4.38h1.3V25.12z"/>
	<path class="st0" d="M36.41,17.88v2.05h1.86v0.99h-1.86v3.85c0,0.88,0.25,1.39,0.97,1.39c0.34,0,0.59-0.04,0.75-0.09l0.06,0.97
		c-0.25,0.1-0.65,0.18-1.15,0.18c-0.6,0-1.09-0.19-1.4-0.55c-0.37-0.38-0.5-1.02-0.5-1.86v-3.9h-1.11v-0.99h1.11v-1.71L36.41,17.88z
		"/>
</g>
</svg>
