<svg id="Layer_1" data-name="Layer 1" xmlns="http://www.w3.org/2000/svg" viewBox="0 0 23 44">
  <g>
    <polygon id="path_1" data-name="path 1" points="2.73 12.242 8.471 21.127 2.594 31.242 -0.003 31.242 6.011 20.99 0.407 12.242 2.73 12.242" fill="#fff"/>
    <rect id="path_2" data-name="path 2" x="9.702" y="12.242" width="2.05" height="19" fill="#fff"/>
    <path id="path_3" data-name="path 3" d="M20.91,22.63a4.44,4.44,0,0,0-2.46-1.367A3.444,3.444,0,0,0,20.5,19.9a4.334,4.334,0,0,0,.82-2.733,4.628,4.628,0,0,0-1.5-3.691,6.68,6.68,0,0,0-4.374-1.23h-1.5v2.05h1.64a4.22,4.22,0,0,1,2.6.684c.683.41.956,1.093.956,2.323a3.215,3.215,0,0,1-.82,2.324,2.885,2.885,0,0,1-2.187.82H13.939v1.914H16.4a3.814,3.814,0,0,1,2.46.82,3.343,3.343,0,0,1,.957,2.734c0,1.23-.274,2.187-.957,2.6a5.383,5.383,0,0,1-2.734.683h-2.05v2.051h2.05c3.964,0,5.878-1.777,5.878-5.468A5.072,5.072,0,0,0,20.91,22.63Z" fill="#fff"/>
  </g>
</svg>
