<?xml version="1.0" encoding="utf-8"?>
<!-- Generator: Adobe Illustrator 25.1.0, SVG Export Plug-In . SVG Version: 6.00 Build 0)  -->
<svg version="1.1" id="Layer_1" xmlns="http://www.w3.org/2000/svg" xmlns:xlink="http://www.w3.org/1999/xlink" x="0px" y="0px"
	 width="49px" height="44px" viewBox="0 0 49 44" style="enable-background:new 0 0 49 44;" xml:space="preserve">
<style type="text/css">
	.st0{fill:#FFFFFF;}
</style>
<g>
	<path class="st0" d="M0.99,17.26c0.65-0.13,1.58-0.21,2.46-0.21c1.37,0,2.26,0.25,2.88,0.81c0.5,0.44,0.78,1.12,0.78,1.89
		c0,1.31-0.83,2.18-1.87,2.54v0.04c0.77,0.27,1.22,0.97,1.46,2.01c0.32,1.39,0.56,2.35,0.77,2.73H6.14
		c-0.16-0.28-0.38-1.14-0.66-2.38c-0.3-1.37-0.83-1.89-1.99-1.93H2.27v4.31H0.99V17.26z M2.27,21.79h1.31
		c1.37,0,2.24-0.75,2.24-1.89c0-1.28-0.93-1.84-2.29-1.86c-0.62,0-1.06,0.06-1.27,0.12V21.79z"/>
	<path class="st0" d="M9.66,23.74c0.03,1.76,1.15,2.48,2.45,2.48c0.93,0,1.49-0.16,1.98-0.37l0.22,0.93
		c-0.46,0.21-1.24,0.44-2.38,0.44c-2.2,0-3.51-1.45-3.51-3.6s1.27-3.85,3.35-3.85c2.33,0,2.95,2.05,2.95,3.36
		c0,0.27-0.03,0.47-0.04,0.6H9.66z M13.47,22.81c0.01-0.83-0.34-2.11-1.8-2.11c-1.31,0-1.89,1.21-1.99,2.11H13.47z"/>
	<path class="st0" d="M16.15,25.74c0.38,0.25,1.06,0.52,1.71,0.52c0.94,0,1.39-0.47,1.39-1.06c0-0.62-0.37-0.96-1.33-1.31
		c-1.28-0.46-1.89-1.17-1.89-2.02c0-1.15,0.93-2.1,2.46-2.1c0.72,0,1.36,0.21,1.76,0.44l-0.32,0.94c-0.28-0.18-0.8-0.41-1.46-0.41
		c-0.77,0-1.2,0.44-1.2,0.97c0,0.59,0.43,0.86,1.36,1.21c1.24,0.47,1.87,1.09,1.87,2.15c0,1.25-0.97,2.14-2.67,2.14
		c-0.78,0-1.5-0.19-2.01-0.49L16.15,25.74z"/>
	<path class="st0" d="M28.15,25.12c0,0.74,0.01,1.39,0.06,1.95h-1.15l-0.07-1.17h-0.03c-0.34,0.58-1.09,1.33-2.36,1.33
		c-1.12,0-2.46-0.62-2.46-3.13v-4.18h1.3v3.95c0,1.36,0.41,2.27,1.59,2.27c0.87,0,1.48-0.61,1.71-1.18
		c0.07-0.19,0.12-0.43,0.12-0.66v-4.38h1.3V25.12z"/>
	<path class="st0" d="M30.3,21.86c0-0.74-0.01-1.34-0.06-1.93h1.14l0.06,1.15h0.04c0.4-0.68,1.06-1.31,2.24-1.31
		c0.97,0,1.71,0.59,2.02,1.43h0.03c0.22-0.4,0.5-0.71,0.8-0.93c0.43-0.32,0.9-0.5,1.58-0.5c0.94,0,2.35,0.62,2.35,3.1v4.21h-1.27
		v-4.04c0-1.37-0.5-2.2-1.55-2.2c-0.74,0-1.31,0.55-1.54,1.18c-0.06,0.18-0.1,0.41-0.1,0.65v4.41h-1.27v-4.28
		c0-1.14-0.5-1.96-1.49-1.96c-0.81,0-1.4,0.65-1.61,1.3c-0.07,0.19-0.1,0.41-0.1,0.63v4.31H30.3V21.86z"/>
	<path class="st0" d="M43.32,23.74c0.03,1.76,1.15,2.48,2.45,2.48c0.93,0,1.49-0.16,1.98-0.37l0.22,0.93
		c-0.46,0.21-1.24,0.44-2.38,0.44c-2.2,0-3.51-1.45-3.51-3.6s1.27-3.85,3.35-3.85c2.33,0,2.95,2.05,2.95,3.36
		c0,0.27-0.03,0.47-0.04,0.6H43.32z M47.13,22.81c0.01-0.83-0.34-2.11-1.8-2.11c-1.31,0-1.89,1.21-1.99,2.11H47.13z"/>
</g>
</svg>
