<svg id="Layer_1" data-name="Layer 1" xmlns="http://www.w3.org/2000/svg" viewBox="0 0 49 44">
  <g>
    <path d="M.989,17.259a13.353,13.353,0,0,1,2.465-.207,4.072,4.072,0,0,1,2.877.811,2.477,2.477,0,0,1,.782,1.889A2.611,2.611,0,0,1,5.239,22.29v.044A2.484,2.484,0,0,1,6.7,24.342a15.829,15.829,0,0,0,.766,2.729H6.138A12.894,12.894,0,0,1,5.475,24.7c-.3-1.372-.827-1.888-1.992-1.933H2.273v4.309H.989Zm1.284,4.53H3.586c1.372,0,2.243-.753,2.243-1.889,0-1.284-.93-1.845-2.287-1.859a5.278,5.278,0,0,0-1.269.118Z" fill="#fff"/>
    <path d="M9.662,23.736a2.288,2.288,0,0,0,2.45,2.479,4.7,4.7,0,0,0,1.976-.368l.222.929a5.794,5.794,0,0,1-2.376.443,3.318,3.318,0,0,1-3.512-3.6c0-2.154,1.27-3.851,3.35-3.851,2.331,0,2.951,2.051,2.951,3.365a4.838,4.838,0,0,1-.044.6Zm3.807-.929a1.85,1.85,0,0,0-1.8-2.111,2.153,2.153,0,0,0-1.992,2.111Z" fill="#fff"/>
    <path d="M16.152,25.743a3.4,3.4,0,0,0,1.711.517c.944,0,1.387-.473,1.387-1.063,0-.62-.369-.959-1.328-1.313-1.284-.457-1.888-1.166-1.888-2.022A2.2,2.2,0,0,1,18.5,19.767a3.575,3.575,0,0,1,1.755.442l-.324.945a2.78,2.78,0,0,0-1.461-.413c-.767,0-1.2.443-1.2.974,0,.59.428.855,1.357,1.21,1.24.472,1.874,1.092,1.874,2.154,0,1.254-.973,2.14-2.671,2.14a4.072,4.072,0,0,1-2.006-.488Z" fill="#fff"/>
    <path d="M28.145,25.123c0,.738.015,1.388.06,1.948H27.053l-.073-1.166h-.03a2.688,2.688,0,0,1-2.361,1.328c-1.121,0-2.464-.62-2.464-3.128V19.929h1.3v3.955c0,1.357.413,2.272,1.594,2.272a1.877,1.877,0,0,0,1.712-1.18,1.918,1.918,0,0,0,.118-.664V19.929h1.3Z" fill="#fff"/>
    <path d="M30.3,21.862c0-.737-.015-1.342-.059-1.933h1.136l.059,1.151h.045a2.46,2.46,0,0,1,2.242-1.313A2.109,2.109,0,0,1,35.741,21.2h.03a2.936,2.936,0,0,1,.8-.929,2.439,2.439,0,0,1,1.579-.5c.945,0,2.347.62,2.347,3.1v4.205H39.224V23.028c0-1.372-.5-2.2-1.549-2.2A1.681,1.681,0,0,0,36.14,22.01a2.138,2.138,0,0,0-.1.649v4.412H34.768V22.792c0-1.136-.5-1.963-1.491-1.963a1.776,1.776,0,0,0-1.608,1.3,1.807,1.807,0,0,0-.1.634v4.309H30.3Z" fill="#fff"/>
    <path d="M43.321,23.736a2.289,2.289,0,0,0,2.45,2.479,4.7,4.7,0,0,0,1.977-.368l.222.929a5.8,5.8,0,0,1-2.376.443,3.318,3.318,0,0,1-3.512-3.6c0-2.154,1.27-3.851,3.35-3.851,2.331,0,2.951,2.051,2.951,3.365a4.838,4.838,0,0,1-.044.6Zm3.808-.929a1.85,1.85,0,0,0-1.8-2.111,2.152,2.152,0,0,0-1.992,2.111Z" fill="#fff"/>
  </g>
</svg>
