<svg id="Layer_1" data-name="Layer 1" xmlns="http://www.w3.org/2000/svg" viewBox="0 0 27 44">
  <g>
    <path d="M.659,17.259A12.429,12.429,0,0,1,3,17.052a4.116,4.116,0,0,1,2.731.723,2.088,2.088,0,0,1,.826,1.756,2.362,2.362,0,0,1-1.683,2.184v.03A2.563,2.563,0,0,1,6.93,24.238a2.68,2.68,0,0,1-.842,1.992,4.988,4.988,0,0,1-3.437.93,14.994,14.994,0,0,1-1.992-.118Zm1.284,4.073H3.108c1.357,0,2.154-.709,2.154-1.668,0-1.165-.885-1.623-2.183-1.623a5.534,5.534,0,0,0-1.136.088Zm0,4.766a6.9,6.9,0,0,0,1.077.058c1.327,0,2.552-.486,2.552-1.932,0-1.358-1.165-1.919-2.568-1.919H1.943Z"/>
    <path d="M8.609,16.6h1.3V27.071h-1.3Z"/>
    <path d="M18.552,23.441A3.49,3.49,0,0,1,15,27.233a3.4,3.4,0,0,1-3.424-3.673,3.487,3.487,0,0,1,3.542-3.792A3.381,3.381,0,0,1,18.552,23.441Zm-5.666.075c0,1.563.9,2.744,2.169,2.744,1.239,0,2.169-1.166,2.169-2.774,0-1.21-.6-2.745-2.14-2.745S12.886,22.158,12.886,23.516Z"/>
    <path d="M26.34,19.93c-.029.516-.059,1.091-.059,1.962v4.147c0,1.637-.324,2.641-1.018,3.26a3.782,3.782,0,0,1-2.6.856,4.592,4.592,0,0,1-2.375-.591l.324-.988a4.027,4.027,0,0,0,2.1.561c1.329,0,2.3-.694,2.3-2.493v-.8h-.029a2.551,2.551,0,0,1-2.273,1.2,3.193,3.193,0,0,1-3.04-3.482c0-2.42,1.579-3.792,3.217-3.792a2.379,2.379,0,0,1,2.229,1.239h.029L25.2,19.93ZM25,22.748a1.821,1.821,0,0,0-.075-.59,1.868,1.868,0,0,0-1.814-1.372c-1.239,0-2.125,1.047-2.125,2.7,0,1.4.708,2.567,2.11,2.567a1.9,1.9,0,0,0,1.8-1.328,2.252,2.252,0,0,0,.1-.694Z"/>
  </g>
</svg>
