<svg id="Layer_1" data-name="Layer 1" xmlns="http://www.w3.org/2000/svg" viewBox="0 0 39 44">
  <g>
    <path d="M2.9,23.943,1.862,27.071H.534l3.379-9.945H5.462l3.393,9.945H7.483L6.421,23.943Zm3.26-1-.973-2.862c-.221-.649-.37-1.24-.517-1.815H4.636c-.148.59-.31,1.2-.5,1.8L3.16,22.939Z"/>
    <path d="M10.166,27.071c.029-.487.059-1.21.059-1.844V16.6h1.284V21.08h.029a2.658,2.658,0,0,1,2.435-1.313c1.77,0,3.024,1.476,3.009,3.645,0,2.553-1.608,3.821-3.2,3.821a2.543,2.543,0,0,1-2.389-1.342h-.045l-.059,1.18Zm1.343-2.862a2.477,2.477,0,0,0,.058.472A2,2,0,0,0,13.515,26.2c1.357,0,2.169-1.106,2.169-2.744,0-1.432-.738-2.656-2.124-2.656a2.071,2.071,0,0,0-1.978,1.594,2.586,2.586,0,0,0-.073.531Z"/>
    <path d="M25.08,23.441a3.49,3.49,0,0,1-3.556,3.792A3.4,3.4,0,0,1,18.1,23.56a3.487,3.487,0,0,1,3.541-3.793A3.382,3.382,0,0,1,25.08,23.441Zm-5.666.074c0,1.564.9,2.745,2.169,2.745,1.239,0,2.169-1.166,2.169-2.775,0-1.21-.605-2.744-2.14-2.744S19.414,22.157,19.414,23.515Z"/>
    <path d="M32.69,25.123c0,.738.015,1.388.06,1.948H31.6l-.074-1.166H31.5a2.687,2.687,0,0,1-2.36,1.328c-1.121,0-2.464-.62-2.464-3.128V19.929h1.3v3.955c0,1.357.413,2.272,1.593,2.272a1.829,1.829,0,0,0,1.831-1.844V19.929h1.3Z"/>
    <path d="M36.407,17.878v2.051h1.859v.989H36.407V24.77c0,.884.25,1.386.974,1.386a2.848,2.848,0,0,0,.752-.089l.059.975a3.185,3.185,0,0,1-1.151.177,1.8,1.8,0,0,1-1.4-.546,2.648,2.648,0,0,1-.5-1.86V20.918H34.031v-.989h1.107V18.218Z"/>
  </g>
</svg>
