<?xml version="1.0" encoding="utf-8"?>
<!-- Generator: Adobe Illustrator 25.1.0, SVG Export Plug-In . SVG Version: 6.00 Build 0)  -->
<svg version="1.1" id="Layer_1" xmlns="http://www.w3.org/2000/svg" xmlns:xlink="http://www.w3.org/1999/xlink" x="0px" y="0px"
	 viewBox="0 0 23 44" style="enable-background:new 0 0 23 44;" xml:space="preserve">
<style type="text/css">
	.st0{fill:#FFFFFF;}
</style>
<g>
	<polygon id="path_1_1_" class="st0" points="2.73,12.24 8.47,21.13 2.59,31.24 0,31.24 6.01,20.99 0.41,12.24 	"/>
	<rect id="path_2_1_" x="9.7" y="12.24" class="st0" width="2.05" height="19"/>
	<path id="path_3_1_" class="st0" d="M20.91,22.63c-0.68-0.68-1.5-1.23-2.46-1.37c0.82-0.14,1.5-0.68,2.05-1.37s0.82-1.64,0.82-2.73
		c0-1.64-0.55-2.87-1.5-3.69c-0.96-0.82-2.46-1.23-4.37-1.23h-1.5v2.05h1.64c1.23,0,2.05,0.27,2.6,0.68
		c0.68,0.41,0.96,1.09,0.96,2.32c0,0.96-0.27,1.78-0.82,2.32c-0.55,0.55-1.23,0.82-2.19,0.82h-2.19v1.91h2.46
		c0.96,0,1.78,0.27,2.46,0.82c0.68,0.55,0.96,1.5,0.96,2.73s-0.27,2.19-0.96,2.6c-0.68,0.41-1.64,0.68-2.73,0.68h-2.05v2.05h2.05
		c3.96,0,5.88-1.78,5.88-5.47C21.87,24.41,21.59,23.31,20.91,22.63z"/>
</g>
</svg>
