<svg id="Layer_1" data-name="Layer 1" xmlns="http://www.w3.org/2000/svg" viewBox="0 0 33 44">
  <g>
    <path d="M3.566,27.071,1.043,17.126H2.4l1.181,5.031c.295,1.24.561,2.48.738,3.439h.029c.163-.99.472-2.169.812-3.453l1.328-5.017H7.831l1.21,5.046c.28,1.181.545,2.361.693,3.409h.03c.206-1.092.486-2.2.8-3.438l1.314-5.017h1.313l-2.818,9.945H9.026L7.771,21.892a29.972,29.972,0,0,1-.649-3.246H7.093a31.323,31.323,0,0,1-.767,3.246L4.909,27.071Z"/>
    <path d="M20.354,23.441A3.49,3.49,0,0,1,16.8,27.233a3.4,3.4,0,0,1-3.423-3.673,3.487,3.487,0,0,1,3.541-3.793A3.382,3.382,0,0,1,20.354,23.441Zm-5.666.074c0,1.564.9,2.745,2.169,2.745,1.239,0,2.169-1.166,2.169-2.775,0-1.21-.605-2.744-2.14-2.744S14.688,22.157,14.688,23.515Z"/>
    <path d="M21.891,22.157c0-.841-.015-1.564-.059-2.228h1.136l.045,1.4h.058a2.144,2.144,0,0,1,1.978-1.564,1.423,1.423,0,0,1,.368.044v1.225a1.914,1.914,0,0,0-.442-.044,1.821,1.821,0,0,0-1.741,1.667,3.608,3.608,0,0,0-.059.606v3.806H21.891Z"/>
    <path d="M28.057,23.205h.029c.178-.251.429-.561.635-.811l2.095-2.465H32.38l-2.759,2.937,3.143,4.205H31.185l-2.464-3.424-.664.739v2.685H26.773V16.6h1.284Z"/>
  </g>
</svg>
