<?xml version="1.0" encoding="utf-8"?>
<!-- Generator: Adobe Illustrator 25.1.0, SVG Export Plug-In . SVG Version: 6.00 Build 0)  -->
<svg version="1.1" id="Layer_1" xmlns="http://www.w3.org/2000/svg" xmlns:xlink="http://www.w3.org/1999/xlink" x="0px" y="0px"
	 viewBox="0 0 33 44" style="enable-background:new 0 0 33 44;" xml:space="preserve">
<style type="text/css">
	.st0{fill:#FFFFFF;}
</style>
<g>
	<path class="st0" d="M3.57,27.07l-2.52-9.95H2.4l1.18,5.03c0.29,1.24,0.56,2.48,0.74,3.44h0.03c0.16-0.99,0.47-2.17,0.81-3.45
		l1.33-5.02h1.34l1.21,5.05c0.28,1.18,0.55,2.36,0.69,3.41h0.03c0.21-1.09,0.49-2.2,0.8-3.44l1.31-5.02h1.31l-2.82,9.95H9.03
		l-1.25-5.18c-0.31-1.27-0.52-2.24-0.65-3.25H7.09c-0.18,0.99-0.4,1.96-0.77,3.25l-1.42,5.18H3.57z"/>
	<path class="st0" d="M20.35,23.44c0,2.64-1.83,3.79-3.56,3.79c-1.93,0-3.42-1.42-3.42-3.67c0-2.39,1.56-3.79,3.54-3.79
		C18.97,19.77,20.35,21.26,20.35,23.44z M14.69,23.51c0,1.56,0.9,2.75,2.17,2.75c1.24,0,2.17-1.17,2.17-2.77
		c0-1.21-0.6-2.74-2.14-2.74C15.35,20.74,14.69,22.16,14.69,23.51z"/>
	<path class="st0" d="M21.89,22.16c0-0.84-0.01-1.56-0.06-2.23h1.14l0.04,1.4h0.06c0.32-0.96,1.11-1.56,1.98-1.56
		c0.15,0,0.25,0.01,0.37,0.04v1.23c-0.13-0.03-0.27-0.04-0.44-0.04c-0.92,0-1.56,0.69-1.74,1.67c-0.03,0.18-0.06,0.38-0.06,0.61
		v3.81h-1.28V22.16z"/>
	<path class="st0" d="M28.06,23.21h0.03c0.18-0.25,0.43-0.56,0.63-0.81l2.1-2.46h1.56l-2.76,2.94l3.14,4.21h-1.58l-2.46-3.42
		l-0.66,0.74v2.69h-1.28V16.59h1.28V23.21z"/>
</g>
</svg>
