<?xml version="1.0" encoding="utf-8"?>
<svg version="1.1" id="favicon" xmlns="http://www.w3.org/2000/svg" xmlns:xlink="http://www.w3.org/1999/xlink" x="0px" y="0px" viewBox="0 0 16 16" style="enable-background:new 0 0 16 16;" xml:space="preserve">
	<g id="favicon">
		<polygon id="path_1" points="2,1.6 6.2,8.1 1.9,15.5 0,15.5 4.4,8 0.3,1.6 "/>
		<rect id="path_2" x="7.1" y="1.6" width="1.5" height="13.9"/>
		<path id="path_3" d="M15.3,9.2c-0.5-0.5-1.1-0.9-1.8-1c0.6-0.1,1.1-0.5,1.5-1c0.4-0.5,0.6-1.2,0.6-2c0-1.2-0.4-2.1-1.1-2.7
			c-0.7-0.6-1.8-0.9-3.2-0.9h-1.1v1.5h1.2c0.9,0,1.5,0.2,1.9,0.5C13.8,3.9,14,4.4,14,5.3c0,0.7-0.2,1.3-0.6,1.7
			c-0.4,0.4-0.9,0.6-1.6,0.6h-1.6V9H12c0.7,0,1.3,0.2,1.8,0.6c0.5,0.4,0.7,1.1,0.7,2c0,0.9-0.2,1.6-0.7,1.9c-0.5,0.3-1.2,0.5-2,0.5
			h-1.5v1.5h1.5c2.9,0,4.3-1.3,4.3-4C16,10.5,15.8,9.7,15.3,9.2z"/>
	</g>
</svg>
